<?xml version="1.0" encoding="UTF-8" standalone="no"?>
<svg xmlns:ffdec="https://www.free-decompiler.com/flash" xmlns:xlink="http://www.w3.org/1999/xlink" ffdec:objectType="shape" height="3.15px" width="3.15px" xmlns="http://www.w3.org/2000/svg">
  <g transform="matrix(1.0, 0.0, 0.0, 1.0, 1.55, 1.55)">
    <path d="M1.1 -1.1 Q1.55 -0.65 1.6 0.0 1.55 0.65 1.1 1.15 0.65 1.6 0.0 1.6 -0.65 1.6 -1.1 1.15 -1.6 0.65 -1.55 0.0 -1.6 -0.65 -1.1 -1.1 -0.65 -1.55 0.0 -1.55 0.65 -1.55 1.1 -1.1" fill="#ffffff" fill-rule="evenodd" stroke="none"/>
    <path d="M-1.1 -1.1 L-0.9 -1.25 -1.05 -0.6 Q-1.1 0.0 -0.65 0.45 L0.4 0.9 Q1.0 0.9 1.45 0.45 L1.55 0.35 1.1 1.15 Q0.65 1.6 0.0 1.6 -0.65 1.6 -1.1 1.15 -1.6 0.65 -1.55 0.0 -1.6 -0.65 -1.1 -1.1" fill="#cccccc" fill-rule="evenodd" stroke="none"/>
    <path d="M-0.95 -1.25 L-1.25 -0.3 Q-1.25 0.35 -0.8 0.8 -0.35 1.25 0.35 1.25 L1.25 0.95 1.1 1.15 Q0.65 1.6 0.0 1.6 -0.65 1.6 -1.1 1.15 -1.6 0.65 -1.55 0.0 -1.6 -0.65 -1.1 -1.1 L-0.95 -1.25" fill="#999999" fill-rule="evenodd" stroke="none"/>
  </g>
</svg>
